<?xml version="1.0" encoding="UTF-8"?>
<svg width="55px" height="55px" viewBox="0 0 55 55" version="1.1" xmlns="http://www.w3.org/2000/svg" xmlns:xlink="http://www.w3.org/1999/xlink">
    <!-- Generator: Sketch 63 (92445) - https://sketch.com -->
    <title>files_folder_back</title>
    <desc>Created with Sketch.</desc>
    <g id="files_folder_back" stroke="none" stroke-width="1" fill="none" fill-rule="evenodd">
        <path d="M9.87890625,12.8251953 L21.3192517,12.8251953 C22.0622837,12.8251953 22.7788785,13.1009365 23.3302527,13.5990158 L26.6433802,16.5919022 C27.1947544,17.0899815 27.9113491,17.3657227 28.6543811,17.3657227 L45.8789063,17.3657227 C47.5357605,17.3657227 48.8789063,18.7088684 48.8789063,20.3657227 L48.8789063,42.8251953 C48.8789063,44.4820496 47.5357605,45.8251953 45.8789063,45.8251953 L9.87890625,45.8251953 C8.222052,45.8251953 6.87890625,44.4820496 6.87890625,42.8251953 L6.87890625,15.8251953 C6.87890625,14.1683411 8.222052,12.8251953 9.87890625,12.8251953 Z" id="Rectangle" stroke="#4A4A4A" stroke-width="2"></path>
        <line x1="48" y1="23" x2="8" y2="23" id="Line" stroke="#4A4A4A" stroke-width="2" stroke-linecap="square"></line>
        <line x1="37" y1="34" x2="21.5361328" y2="34" id="Line" stroke="#4A4A4A" stroke-width="2" stroke-linecap="round" stroke-linejoin="round"></line>
        <polyline id="Line" stroke="#4A4A4A" stroke-width="2" stroke-linecap="round" stroke-linejoin="round" points="22 38.3 16.4990234 34.3 22 29.3"></polyline>
    </g>
</svg>